<svg width="32" height="32" viewBox="0 0 32 32" fill="none" xmlns="http://www.w3.org/2000/svg">
<path d="M6.57503 31.1301C5.15421 30.8797 3.84487 30.1981 2.82483 29.1779C1.80479 28.1576 1.12347 26.8482 0.87341 25.4273C0.42506 22.8915 0 19.5533 0 16.0032C0 12.4531 0.423895 9.11491 0.87341 6.57969C1.12297 5.15805 1.8042 3.84773 2.8245 2.8268C3.84481 1.80587 5.15471 1.12384 6.57619 0.87341C9.11141 0.425642 12.4496 0 15.9997 0C19.5498 0 22.8886 0.423895 25.4238 0.87341C26.8448 1.1237 28.1543 1.80523 29.1745 2.82548C30.1948 3.84572 30.8763 5.15523 31.1266 6.57619C31.5749 9.11199 32 12.4502 32 16.0003C32 19.5504 31.5761 22.8886 31.1266 25.4244C30.8764 26.8454 30.1949 28.1549 29.1746 29.1752C28.1544 30.1954 26.8448 30.877 25.4238 31.1272C22.888 31.5749 19.5498 32.0006 15.9997 32.0006C12.4496 32.0006 9.11083 31.5778 6.57503 31.1301Z" fill="#4FA0D8"/>
<path fill-rule="evenodd" clip-rule="evenodd" d="M22.9995 11.8504C22.9995 13.4281 21.7199 14.7076 20.1422 14.7076C18.5645 14.7076 17.2856 13.4281 17.2856 11.8504C17.2856 10.2726 18.5645 8.99309 20.1422 8.99309C21.7199 8.99309 22.9995 10.2726 22.9995 11.8504Z" stroke="white" stroke-width="1.16661" stroke-linecap="round" stroke-linejoin="round"/>
<path fill-rule="evenodd" clip-rule="evenodd" d="M14.7138 11.8503C14.7138 13.4281 13.435 14.7076 11.8566 14.7076C10.2795 14.7076 9 13.4281 9 11.8503C9 10.2726 10.2795 8.99308 11.8566 8.99308C13.435 8.99308 14.7138 10.2726 14.7138 11.8503Z" stroke="white" stroke-width="1.16661" stroke-linecap="round" stroke-linejoin="round"/>
<path fill-rule="evenodd" clip-rule="evenodd" d="M22.9995 20.0852C22.9995 21.6629 21.7199 22.9418 20.1422 22.9418C18.5645 22.9418 17.2856 21.6629 17.2856 20.0852C17.2856 18.5075 18.5645 17.2279 20.1422 17.2279C21.7199 17.2279 22.9995 18.5075 22.9995 20.0852Z" stroke="white" stroke-width="1.16661" stroke-linecap="round" stroke-linejoin="round"/>
<path fill-rule="evenodd" clip-rule="evenodd" d="M14.7138 20.0852C14.7138 21.6629 13.435 22.9418 11.8566 22.9418C10.2795 22.9418 9 21.6629 9 20.0852C9 18.5075 10.2795 17.2279 11.8566 17.2279C13.435 17.2279 14.7138 18.5075 14.7138 20.0852Z" stroke="white" stroke-width="1.16661" stroke-linecap="round" stroke-linejoin="round"/>
</svg>
